<svg width="34" height="30" viewBox="0 0 34 30" fill="none" xmlns="http://www.w3.org/2000/svg">
<path d="M7.4117 26.4889C7.4117 27.3515 7.05759 28.1788 6.42785 28.7888C5.79713 29.399 4.94277 29.742 4.05211 29.7427V29.6922C4.05211 29.7106 4.05211 29.7291 4.05211 29.7476C3.17911 29.7484 2.34143 29.4207 1.71366 28.834C1.08686 28.2473 0.719005 27.4474 0.690559 26.6034V26.3828C0.719986 25.5398 1.08686 24.7407 1.71366 24.1543C2.34045 23.568 3.17812 23.2401 4.04917 23.24C4.04917 23.2584 4.04917 23.2769 4.04917 23.2954V23.24C4.93982 23.24 5.79419 23.5821 6.42491 24.1912C7.05563 24.8003 7.41072 25.6266 7.4117 26.4889ZM0 11.3755V3.91551C0 1.88875 1.50667 0.246416 3.36155 0.246416V0.310488C3.36155 0.288371 3.36155 0.267394 3.36155 0.246416C5.21938 0.246416 6.7231 1.88875 6.7231 3.91551V11.1845C6.7231 11.2054 6.7231 11.2264 6.7231 11.2473C6.7231 13.2703 5.21938 14.9139 3.36352 14.9151V14.8523C3.36352 14.8732 3.36352 14.8941 3.36352 14.9151C1.54198 14.9188 0.059835 13.3442 0 11.3755ZM3.36057 7.58327C3.36057 7.60416 3.36057 7.62513 3.36057 7.64611V7.5155C3.36057 7.54132 3.36057 7.5623 3.36057 7.58327ZM21.6897 23.2141L21.6779 23.2695C21.6779 23.2511 21.6779 23.2326 21.6877 23.2141C20.8255 23.041 20.0673 22.5463 19.5768 21.8369C19.0874 21.1273 18.9059 20.2599 19.0717 19.4219C19.0717 19.4034 19.0776 19.385 19.0815 19.3664C19.261 18.5218 19.0864 17.6429 18.5969 16.9224C18.1075 16.202 17.3433 15.699 16.4713 15.5237L16.4595 15.5792C16.4595 15.5607 16.4654 15.5422 16.4694 15.5237C15.6071 15.3498 14.7086 15.5105 13.9681 15.9714C13.2265 16.4322 12.7027 17.1564 12.5075 17.9878L12.4839 18.0987C12.3191 18.9367 12.5006 19.8041 12.9901 20.5137C13.4796 21.2231 14.2378 21.7178 15.101 21.8909C15.101 21.8724 15.1088 21.854 15.1137 21.8367L15.103 21.8909C15.975 22.0674 16.7391 22.5718 17.2276 23.2932C17.7161 24.0145 17.8887 24.8939 17.7082 25.7385C17.7082 25.7201 17.7161 25.7016 17.721 25.6843L17.6965 25.794C17.5317 26.6322 17.7141 27.4996 18.2036 28.209C18.6931 28.9185 19.4513 29.4131 20.3145 29.5862C20.3145 29.5677 20.3223 29.5505 20.3272 29.532L20.3164 29.5862C21.1836 29.7495 22.0831 29.5754 22.8197 29.1016C23.5554 28.6277 24.0694 27.8923 24.2489 27.0545C24.4284 26.2167 24.2607 25.344 23.781 24.6255C23.3004 23.9069 22.547 23.4003 21.6848 23.2153L21.6897 23.2141ZM22.8737 10.1471C22.756 10.0361 22.6314 9.93362 22.499 9.84032C21.9918 9.22228 21.7348 8.44677 21.775 7.65855C21.8153 6.87022 22.1507 6.1231 22.7177 5.55651C23.3327 4.94199 23.6731 4.11788 23.6643 3.26254C23.6564 2.40711 23.3013 1.58927 22.6745 0.985664L22.6431 0.952442C22.0124 0.342572 21.1581 0 20.2664 0C19.3748 0 18.5204 0.342572 17.8897 0.952442C17.2668 1.555 16.4242 1.89662 15.5434 1.90374C14.6625 1.91086 13.8141 1.583 13.1804 0.9906L13.1382 0.952442C12.5085 0.342667 11.6541 9.48693e-05 10.7625 9.48693e-05C9.87182 9.48693e-05 9.01743 0.342667 8.38671 0.952442L8.42891 0.991834C8.41419 0.979494 8.39946 0.966016 8.38671 0.953676C7.76384 1.55633 7.41073 2.37209 7.40289 3.22486C7.39504 4.07764 7.73442 4.89909 8.3465 5.51218L8.42891 5.5923C9.06257 6.1848 9.91103 6.51266 10.7919 6.50525C11.6727 6.49794 12.5153 6.15585 13.1382 5.55281C13.1255 5.54057 13.1117 5.52699 13.099 5.51218L13.1402 5.55281C13.7699 4.94303 14.6253 4.60037 15.5159 4.60037C16.4076 4.60037 17.2619 4.94303 17.8926 5.55281C17.8789 5.54019 17.8652 5.52661 17.8534 5.51218L17.9348 5.5923L17.9652 5.62429C18.5979 6.21754 18.9657 7.0277 18.9873 7.88038C19.0089 8.73306 18.6842 9.55992 18.082 10.1828C17.4561 10.7702 16.6184 11.0986 15.7464 11.0986C14.8744 11.0986 14.0357 10.7702 13.4099 10.1828L13.3677 10.1434C12.737 9.53353 11.8826 9.19096 10.991 9.19096C10.1003 9.19096 9.24501 9.53353 8.61527 10.1434L8.62803 10.1557L8.6133 10.1434C8.52012 10.2361 8.43086 10.334 8.34847 10.4366C7.84624 11.0093 7.56569 11.7331 7.55294 12.4843V12.5964C7.55196 12.5779 7.55196 12.5594 7.55294 12.5409C7.55294 13.4035 7.19984 14.2307 6.5701 14.8409C5.94036 15.451 5.08598 15.7941 4.19434 15.7947V15.8502C4.19434 15.8318 4.19434 15.8132 4.19434 15.7947C3.32035 15.7927 2.48071 16.1201 1.85195 16.7075C1.2232 17.295 0.856345 18.0962 0.827899 18.9414V19.1619C0.858307 20.0044 1.22516 20.8026 1.85195 21.3881C2.47875 21.9735 3.31547 22.3005 4.18651 22.2999C4.18651 22.2815 4.18651 22.263 4.18651 22.2445V22.2999C5.07815 22.2996 5.93251 21.9568 6.56225 21.3468C7.19199 20.7369 7.54609 19.9098 7.54609 19.0473C7.54413 19.0285 7.54413 19.0095 7.54609 18.9906C7.55885 18.1366 7.91785 17.3217 8.54661 16.7223C9.17537 16.1228 10.0219 15.787 10.9047 15.7873C10.9047 15.7689 10.9047 15.7492 10.9047 15.7307V15.7873C11.3863 15.7874 11.8611 15.6873 12.2995 15.4938C12.737 15.3005 13.1264 15.0182 13.4413 14.6662C14.022 14.1403 14.7753 13.8306 15.5699 13.7925C16.3634 13.7544 17.1462 13.9902 17.7769 14.458C17.877 14.5851 17.9858 14.7053 18.1025 14.8178C18.7431 15.4183 19.6033 15.748 20.494 15.7347C21.3856 15.7213 22.2351 15.3657 22.855 14.7463L22.8638 14.7377C23.4926 14.1291 23.8457 13.3045 23.8477 12.4442C23.8497 11.5839 23.4985 10.758 22.8737 10.1471Z" fill="white"/>
<path d="M30.0883 16.9807V17.0361C30.0883 17.0176 30.0883 16.9992 30.0883 16.9807C29.2074 16.9811 28.3619 17.3165 27.7341 17.9145C27.1063 18.5125 26.7463 19.3252 26.7306 20.1778V26.7963C26.7443 27.6501 27.1044 28.4646 27.7321 29.064C28.3609 29.6633 29.2074 29.9993 30.0902 29.9996C30.0902 29.9811 30.0902 29.9614 30.0902 29.9429V29.9996C30.5316 29.9996 30.9681 29.9154 31.3762 29.7519C31.7842 29.5884 32.155 29.3487 32.4669 29.0466C32.7789 28.7445 33.027 28.3857 33.1958 27.991C33.3645 27.5962 33.4518 27.173 33.4518 26.7458V20.2332C33.4518 19.8059 33.3645 19.3827 33.1958 18.988C33.0261 18.5932 32.7789 18.2345 32.466 17.9324C32.154 17.6304 31.7832 17.3908 31.3752 17.2275C30.9671 17.0642 30.5297 16.9804 30.0883 16.9807ZM30.0883 23.5437C30.0883 23.524 30.0883 23.5056 30.0883 23.487C30.0883 23.4685 30.0883 23.4501 30.0883 23.4316V23.5437ZM33.4155 12.5786C33.4155 13.4414 33.0614 14.2688 32.4306 14.879C31.8009 15.4892 30.9456 15.8321 30.0539 15.8324V15.777C30.0539 15.7955 30.0539 15.8139 30.0539 15.8324C29.1721 15.8318 28.3256 15.4957 27.6968 14.8965C27.069 14.2972 26.709 13.4829 26.6953 12.6291V12.517C26.71 11.6636 27.071 10.8501 27.6998 10.252C28.3285 9.65385 29.175 9.31907 30.0569 9.31983C30.4983 9.32002 30.9357 9.4045 31.3438 9.56852C31.7519 9.73245 32.1226 9.97279 32.4346 10.2756C32.7465 10.5784 32.9937 10.9378 33.1624 11.3331C33.3311 11.7286 33.4165 12.1522 33.4155 12.5798V12.5786Z" fill="white"/>
</svg>
