<svg width="183" height="45" viewBox="0 0 183 45" fill="none" xmlns="http://www.w3.org/2000/svg">
<path d="M11.1175 39.7331C11.1175 41.027 10.5863 42.2679 9.64172 43.183C8.69565 44.0982 7.41411 44.6128 6.07813 44.6138V44.538C6.07813 44.5656 6.07813 44.5934 6.07813 44.6212C4.76863 44.6223 3.51213 44.1308 2.57047 43.2507C1.63028 42.3707 1.0785 41.1708 1.03583 39.9049V39.574C1.07997 38.3094 1.63028 37.1108 2.57047 36.2312C3.51066 35.3517 4.76716 34.8599 6.07371 34.8598C6.07371 34.8874 6.07371 34.9152 6.07371 34.9429V34.8598C7.40969 34.8598 8.69123 35.3729 9.6373 36.2866C10.5834 37.2002 11.116 38.4397 11.1175 39.7331ZM0 17.0631V5.87323C0 2.8331 2.25999 0.369622 5.0423 0.369622V0.465729C5.0423 0.432554 5.0423 0.401088 5.0423 0.369622C7.82902 0.369622 10.0846 2.8331 10.0846 5.87323V16.7766C10.0846 16.808 10.0846 16.8394 10.0846 16.8709C10.0846 19.9053 7.82903 22.3707 5.04524 22.3725V22.2783C5.04524 22.3097 5.04524 22.341 5.04524 22.3725C2.31296 22.3781 0.089752 20.0162 0 17.0631ZM5.04083 11.3748C5.04083 11.4062 5.04083 11.4376 5.04083 11.4691V11.2732C5.04083 11.3119 5.04083 11.3434 5.04083 11.3748ZM32.5344 34.8209L32.5167 34.9041C32.5167 34.8764 32.5167 34.8487 32.5314 34.8209C31.2381 34.5614 30.1008 33.8193 29.3651 32.7551C28.6309 31.6908 28.3587 30.3897 28.6074 29.1326C28.6074 29.1049 28.6162 29.0773 28.6221 29.0495C28.8913 27.7826 28.6294 26.4641 27.8952 25.3835C27.161 24.3028 26.0149 23.5483 24.7068 23.2855L24.6892 23.3686C24.6892 23.3409 24.698 23.3131 24.7039 23.2855C23.4106 23.0246 22.0628 23.2657 20.952 23.9569C19.8396 24.6482 19.0539 25.7344 18.7611 26.9815L18.7258 27.1478C18.4786 28.4049 18.7508 29.706 19.485 30.7703C20.2192 31.8345 21.3566 32.5766 22.6514 32.8361C22.6514 32.8084 22.6631 32.7807 22.6705 32.7548L22.6543 32.8361C23.9623 33.1009 25.1085 33.8574 25.8412 34.9395C26.574 36.0215 26.8329 37.3406 26.5622 38.6075C26.5622 38.5799 26.574 38.5522 26.5813 38.5262L26.5445 38.6907C26.2973 39.9481 26.571 41.2491 27.3052 42.3133C28.0394 43.3775 29.1768 44.1194 30.4715 44.379C30.4715 44.3513 30.4833 44.3254 30.4907 44.2977L30.4745 44.379C31.7752 44.624 33.1244 44.3629 34.2294 43.6521C35.3329 42.9413 36.1039 41.8382 36.3731 40.5815C36.6424 39.3249 36.3908 38.0158 35.6713 36.938C34.9503 35.8602 33.8203 35.1003 32.527 34.8228L32.5344 34.8209ZM34.3103 15.2206C34.1337 15.0541 33.9469 14.9003 33.7482 14.7604C32.9875 13.8333 32.602 12.6701 32.6624 11.4878C32.7227 10.3053 33.2259 9.18459 34.0763 8.33472C34.9989 7.41294 35.5094 6.17678 35.4962 4.89379C35.4844 3.61065 34.9518 2.38389 34.0116 1.47849L33.9645 1.42865C33.0184 0.513855 31.7369 0 30.3995 0C29.062 0 27.7805 0.513855 26.8344 1.42865C25.9001 2.33249 24.6362 2.84492 23.3149 2.8556C21.9937 2.86628 20.721 2.37449 19.7705 1.48589L19.7072 1.42865C18.7626 0.513997 17.4811 0.000142303 16.1436 0.000142303C14.8076 0.000142303 13.5261 0.513997 12.58 1.42865L12.6433 1.48774C12.6212 1.46923 12.5991 1.44902 12.58 1.43051C11.6457 2.33448 11.116 3.55811 11.1043 4.83726C11.0925 6.11642 11.6016 7.34858 12.5197 8.26822L12.6433 8.3884C13.5938 9.27714 14.8665 9.76892 16.1877 9.75782C17.509 9.74685 18.7729 9.23371 19.7072 8.32916C19.6881 8.3108 19.6675 8.29044 19.6483 8.26822L19.7102 8.32916C20.6548 7.41451 21.9378 6.90051 23.2737 6.90051C24.6112 6.90051 25.8927 7.41451 26.8388 8.32916C26.8182 8.31023 26.7976 8.28987 26.7799 8.26822L26.9021 8.3884L26.9477 8.43638C27.8967 9.32626 28.4484 10.5415 28.4808 11.8205C28.5132 13.0995 28.0262 14.3398 27.1228 15.2741C26.184 16.1552 24.9275 16.6478 23.6195 16.6478C22.3115 16.6478 21.0535 16.1552 20.1148 15.2741L20.0515 15.215C19.1054 14.3002 17.8239 13.7864 16.4864 13.7864C15.1504 13.7864 13.8674 14.3002 12.9228 15.215L12.942 15.2335L12.9199 15.215C12.7801 15.3541 12.6462 15.5009 12.5226 15.6548C11.7693 16.5138 11.3485 17.5995 11.3293 18.7263V18.8944C11.3279 18.8668 11.3279 18.839 11.3293 18.8113C11.3293 20.1051 10.7997 21.3459 9.85509 22.2612C8.91049 23.1764 7.62892 23.691 6.29147 23.692V23.7751C6.29147 23.7475 6.29147 23.7197 6.29147 23.692C4.9805 23.689 3.72105 24.18 2.77792 25.0611C1.83478 25.9423 1.28451 27.1441 1.24184 28.4119V28.7427C1.28745 30.0064 1.83773 31.2037 2.77792 32.0819C3.7181 32.96 4.97317 33.4505 6.27972 33.4496C6.27972 33.422 6.27972 33.3943 6.27972 33.3665V33.4496C7.61717 33.4492 8.89871 32.9349 9.84331 32.02C10.7879 31.1052 11.3191 29.8645 11.3191 28.5708C11.3161 28.5426 11.3161 28.5141 11.3191 28.4858C11.3382 27.2048 11.8767 25.9825 12.8198 25.0833C13.763 24.184 15.0327 23.6803 16.357 23.6809C16.357 23.6532 16.357 23.6236 16.357 23.5959V23.6809C17.0794 23.681 17.7915 23.5308 18.4492 23.2406C19.1054 22.9506 19.6895 22.5271 20.1618 21.9992C21.0329 21.2103 22.1629 20.7458 23.3547 20.6886C24.545 20.6315 25.7191 20.9852 26.6652 21.6868C26.8153 21.8775 26.9786 22.0579 27.1537 22.2266C28.1144 23.1273 29.4048 23.6219 30.7408 23.6018C32.0783 23.5818 33.3524 23.0484 34.2823 22.1194L34.2956 22.1064C35.2387 21.1935 35.7684 19.9566 35.7713 18.6662C35.7743 17.3758 35.2475 16.1369 34.3103 15.2206Z" fill="white"/>
<path d="M45.1285 25.4716V25.5548C45.1285 25.527 45.1285 25.4994 45.1285 25.4716C43.8072 25.4724 42.5389 25.9754 41.5972 26.8724C40.6556 27.7694 40.1156 28.9885 40.092 30.2673V40.195C40.1126 41.4757 40.6526 42.6975 41.5943 43.5965C42.5374 44.4955 43.8072 44.9995 45.1314 45C45.1314 44.9722 45.1314 44.9426 45.1314 44.9149V45C45.7935 45 46.4482 44.8737 47.0603 44.6283C47.6724 44.3832 48.2286 44.0236 48.6965 43.5704C49.1644 43.1172 49.5366 42.5792 49.7897 41.987C50.0427 41.3949 50.1737 40.7601 50.1737 40.1193V30.3505C50.1737 29.7095 50.0427 29.0747 49.7897 28.4826C49.5351 27.8904 49.1643 27.3524 48.695 26.8993C48.2271 26.4462 47.6709 26.0869 47.0588 25.842C46.4468 25.5969 45.7906 25.4712 45.1285 25.4716ZM45.1285 35.3162C45.1285 35.2866 45.1285 35.2589 45.1285 35.2312C45.1285 35.2034 45.1285 35.1758 45.1285 35.148V35.3162ZM50.1192 18.8686C50.1192 20.1628 49.5881 21.4039 48.642 22.3192C47.6974 23.2344 46.4144 23.7488 45.0769 23.7493V23.6661C45.0769 23.6939 45.0769 23.7215 45.0769 23.7493C43.7542 23.7484 42.4844 23.2442 41.5413 22.3454C40.5996 21.4465 40.0597 20.225 40.0391 18.9443V18.7762C40.0611 17.4962 40.6026 16.2759 41.5457 15.3788C42.4888 14.4815 43.7586 13.9793 45.0814 13.9805C45.7435 13.9808 46.3997 14.1075 47.0117 14.3535C47.6238 14.5994 48.18 14.9599 48.6479 15.4141C49.1158 15.8683 49.4866 16.4074 49.7396 17.0004C49.9927 17.5935 50.1207 18.229 50.1192 18.8704V18.8686Z" fill="white"/>
<path d="M58.6944 19.3076C59.1078 19.3076 59.5036 19.4664 59.7949 19.7487C60.0863 20.0312 60.2511 20.4143 60.2511 20.8137V33.7316C60.2511 33.9293 60.2099 34.1251 60.1319 34.3078C60.0539 34.4903 59.9391 34.6563 59.7949 34.796C59.6507 34.9357 59.4786 35.0464 59.2903 35.1219C59.1019 35.1974 58.8989 35.2361 58.6944 35.236C58.2824 35.236 57.8881 35.0775 57.5953 34.7953C57.304 34.5132 57.1406 34.1307 57.1406 33.7316V20.8137C57.1406 20.4146 57.304 20.0318 57.5953 19.7494C57.8866 19.4671 58.2824 19.3082 58.6944 19.3076Z" fill="white"/>
<path d="M63.8465 23.4557H66.0815C66.1904 23.4557 66.2934 23.4972 66.3699 23.5714C66.4479 23.6456 66.4905 23.7463 66.4905 23.8511C66.4905 23.9242 66.5126 23.9959 66.5523 24.0581C66.592 24.1202 66.6494 24.1704 66.7157 24.2033C66.7833 24.2362 66.8598 24.2504 66.9349 24.2443C67.0099 24.2382 67.082 24.2121 67.1438 24.169C67.5234 23.8949 67.9369 23.6654 68.3724 23.4851C68.9183 23.2673 69.5009 23.1544 70.0909 23.1525C70.6618 23.1424 71.2297 23.2458 71.758 23.4562C72.2862 23.6667 72.7643 23.9796 73.1631 24.3759C73.8708 25.0696 74.2239 26.0953 74.2239 27.4529V34.8452C74.2239 34.95 74.1813 35.0506 74.1047 35.1248C74.0282 35.1988 73.9238 35.2406 73.8164 35.2406H71.6196C71.5122 35.2406 71.4078 35.1988 71.3312 35.1248C71.2547 35.0506 71.2121 34.95 71.2121 34.8452V30.079C71.2121 28.6732 71.1488 27.7393 71.0208 27.2773C70.9208 26.8623 70.6809 26.4911 70.3396 26.2221C69.9938 25.9713 69.5715 25.841 69.1404 25.8525C68.549 25.843 67.9781 26.0587 67.5499 26.4531C67.0776 26.9053 66.7568 27.4849 66.6303 28.1164C66.5406 28.486 66.495 29.283 66.4935 30.5078V34.8378C66.495 34.8897 66.4832 34.9413 66.4641 34.9894C66.4435 35.0374 66.4126 35.0811 66.3743 35.118C66.3375 35.1547 66.2919 35.1838 66.2419 35.2035C66.1919 35.2233 66.1389 35.2334 66.0859 35.2332H63.8465C63.7377 35.2332 63.6332 35.1916 63.5567 35.1174C63.4802 35.0432 63.4375 34.9426 63.4375 34.8378V23.8511C63.4375 23.7463 63.4802 23.6456 63.5567 23.5714C63.6332 23.4972 63.7377 23.4557 63.8465 23.4557Z" fill="white"/>
<path d="M77.5926 23.4557H79.8305C79.9379 23.4557 80.0424 23.4973 80.1189 23.5714C80.1954 23.6456 80.2381 23.7463 80.2381 23.8511V24.6642C80.7987 24.1795 81.4328 23.7819 82.1185 23.4852C82.6644 23.2675 83.247 23.1544 83.837 23.1526C84.4079 23.1423 84.9758 23.2455 85.5041 23.456C86.0323 23.6664 86.5105 23.9795 86.9092 24.376C87.6169 25.0696 87.9715 26.0953 87.9715 27.453V34.8452C87.9715 34.95 87.9273 35.0506 87.8508 35.1248C87.7743 35.199 87.6713 35.2406 87.5625 35.2406H85.3672C85.2583 35.2406 85.1538 35.199 85.0773 35.1248C85.0008 35.0506 84.9582 34.95 84.9582 34.8452V30.079C84.9582 28.6732 84.8949 27.7394 84.7669 27.2773C84.6683 26.862 84.4285 26.4907 84.0857 26.2221C83.7399 25.9714 83.3176 25.8411 82.8865 25.8525C82.295 25.8431 81.7242 26.0588 81.296 26.4532C80.8237 26.9053 80.5029 27.4851 80.3764 28.1164C80.2852 28.486 80.2411 29.2832 80.2425 30.5078V34.8378C80.2425 34.9426 80.1998 35.0432 80.1219 35.1174C80.0454 35.1916 79.9424 35.2332 79.8335 35.2332H77.5926C77.4838 35.2332 77.3793 35.1916 77.3028 35.1174C77.2263 35.0432 77.1836 34.9426 77.1836 34.8378V23.8511C77.1836 23.7463 77.2263 23.6456 77.3028 23.5714C77.3793 23.4973 77.4838 23.4557 77.5926 23.4557Z" fill="white"/>
<path d="M96.6489 23.1525C97.7877 23.1488 98.9074 23.4371 99.8947 23.9878C100.872 24.5229 101.684 25.3006 102.247 26.2407C102.811 27.1809 103.104 28.2493 103.098 29.3361C103.104 30.4309 102.808 31.5073 102.243 32.4555C101.693 33.4025 100.886 34.1864 99.9094 34.7231C98.9192 35.2704 97.7951 35.5529 96.6548 35.5418C95.822 35.5537 94.9951 35.3997 94.2271 35.0894C93.4576 34.7792 92.7631 34.3191 92.1848 33.7381C91.5786 33.1399 91.1019 32.4297 90.7841 31.6498C90.4678 30.8698 90.3148 30.036 90.3383 29.198C90.3604 28.3599 90.5561 27.5348 90.9151 26.7718C91.2741 26.0088 91.7876 25.3235 92.4262 24.7565C93.5694 23.717 95.0805 23.1426 96.6489 23.1525ZM96.7004 25.9356C96.2575 25.9249 95.8176 26.0049 95.4086 26.1701C95.001 26.3354 94.6332 26.5823 94.3301 26.8948C94.0108 27.2224 93.7621 27.6077 93.5988 28.0286C93.4355 28.4495 93.359 28.8976 93.3752 29.3471C93.3752 30.3722 93.6871 31.2026 94.3109 31.8383C94.614 32.1498 94.9819 32.3957 95.3909 32.5597C95.7999 32.7238 96.2399 32.8022 96.6813 32.79C97.1271 32.8009 97.57 32.7208 97.9805 32.5549C98.3925 32.389 98.7632 32.141 99.0678 31.8272C99.7049 31.1841 100.023 30.3574 100.023 29.3471C100.023 28.3369 99.7108 27.5157 99.0884 26.8837C98.7824 26.572 98.4101 26.3266 97.9996 26.1633C97.5876 26 97.1448 25.9224 96.7004 25.9356Z" fill="white"/>
<path d="M106.453 23.4555H106.469C106.747 23.4557 107.021 23.5352 107.253 23.684C107.486 23.8328 107.668 24.0445 107.778 24.2927L110.231 29.8369C110.252 29.8846 110.287 29.9253 110.331 29.954C110.377 29.9827 110.428 29.998 110.481 29.998C110.536 29.998 110.587 29.9827 110.631 29.954C110.677 29.9253 110.711 29.8846 110.731 29.8369L113.181 24.2927C113.29 24.0439 113.473 23.8318 113.706 23.6827C113.939 23.5335 114.213 23.4539 114.491 23.4536C114.726 23.4539 114.959 23.5104 115.166 23.6185C115.374 23.7266 115.55 23.8826 115.68 24.0727C115.809 24.2629 115.888 24.4813 115.911 24.7083C115.933 24.9354 115.894 25.1639 115.803 25.3738L111.835 34.3959C111.726 34.6449 111.544 34.8574 111.311 35.0066C111.079 35.1558 110.805 35.2352 110.525 35.235H110.428C110.149 35.2351 109.877 35.1558 109.643 35.007C109.41 34.8581 109.226 34.6463 109.117 34.3978L105.142 25.3775C105.049 25.1676 105.012 24.9386 105.033 24.7114C105.055 24.4842 105.134 24.2655 105.264 24.0751C105.393 23.8847 105.57 23.7284 105.777 23.6203C105.985 23.5121 106.217 23.4556 106.453 23.4555Z" fill="white"/>
<path d="M127.821 23.456H130.061C130.17 23.456 130.273 23.4976 130.349 23.5713C130.426 23.6452 130.468 23.7453 130.468 23.8497V34.8455C130.468 34.8972 130.458 34.9483 130.437 34.9958C130.417 35.0435 130.386 35.0868 130.349 35.1233C130.311 35.1596 130.267 35.1885 130.217 35.208C130.168 35.2276 130.115 35.2376 130.061 35.2373H127.821C127.768 35.2376 127.715 35.2276 127.667 35.208C127.617 35.1885 127.573 35.1596 127.534 35.1233C127.496 35.0868 127.467 35.0435 127.446 34.9958C127.426 34.9483 127.415 34.8972 127.415 34.8455C127.415 34.7717 127.393 34.6995 127.352 34.6372C127.312 34.5747 127.253 34.5246 127.186 34.4922C127.117 34.4599 127.04 34.4468 126.965 34.4544C126.888 34.4619 126.816 34.49 126.756 34.5351C126.407 34.7945 126.025 35.0105 125.62 35.1782C125.002 35.4261 124.34 35.5517 123.671 35.5479C122.099 35.5479 120.74 34.9577 119.594 33.7773C118.446 32.597 117.874 31.1298 117.875 29.3753C117.875 27.5544 118.43 26.0635 119.539 24.903C120.044 24.3474 120.666 23.9038 121.364 23.6026C122.062 23.3015 122.819 23.15 123.584 23.1585C124.29 23.1547 124.989 23.2911 125.639 23.5595C126.044 23.7298 126.425 23.9483 126.774 24.21C126.834 24.2537 126.906 24.2802 126.981 24.2866C127.056 24.293 127.131 24.2789 127.199 24.2462C127.265 24.2133 127.322 24.1629 127.361 24.1007C127.4 24.0385 127.421 23.967 127.421 23.8939V23.8589C127.42 23.8069 127.428 23.7551 127.449 23.7067C127.468 23.6583 127.498 23.614 127.534 23.5766C127.571 23.5391 127.617 23.5091 127.665 23.4884C127.715 23.4678 127.768 23.4567 127.821 23.456ZM124.194 25.8824C123.753 25.872 123.316 25.9531 122.91 26.1202C122.504 26.2872 122.14 26.5364 121.842 26.8509C121.218 27.4978 120.906 28.3263 120.905 29.3365C120.905 30.8409 121.599 31.9496 122.989 32.6629C123.023 32.682 123.061 32.6958 123.1 32.7036C124.57 33.0214 125.732 32.7407 126.59 31.8609C127.227 31.2166 127.545 30.3702 127.545 29.3217C127.545 28.2979 127.227 27.4681 126.59 26.8324C126.284 26.5214 125.911 26.2763 125.501 26.1127C125.09 25.9491 124.648 25.8706 124.203 25.8824H124.194Z" fill="white"/>
<path d="M134.708 19.1143H136.194C136.297 19.114 136.4 19.1335 136.494 19.1714C136.59 19.2094 136.677 19.2652 136.749 19.3357C136.821 19.406 136.88 19.4896 136.918 19.5817C136.958 19.6737 136.978 19.7723 136.977 19.8719V23.4553H138.007C138.11 23.454 138.213 23.4727 138.308 23.5099C138.404 23.5472 138.492 23.6024 138.566 23.6725C138.64 23.7425 138.698 23.8261 138.738 23.9182C138.779 24.0103 138.8 24.1093 138.801 24.2092V25.2368C138.801 25.3365 138.781 25.4351 138.741 25.5273C138.701 25.6192 138.644 25.7028 138.57 25.7733C138.498 25.8436 138.411 25.8994 138.316 25.9373C138.222 25.9753 138.119 25.9947 138.016 25.9946H136.987V34.4734C136.987 34.5729 136.967 34.6716 136.928 34.7635C136.889 34.8557 136.831 34.9392 136.759 35.0097C136.686 35.0801 136.599 35.1359 136.505 35.1739C136.409 35.2119 136.307 35.2313 136.204 35.231H134.717C134.614 35.2313 134.512 35.2119 134.417 35.1739C134.323 35.1359 134.236 35.0801 134.164 35.0097C134.09 34.9392 134.033 34.8557 133.993 34.7635C133.955 34.6716 133.934 34.5729 133.934 34.4734V26.0001H133.151C133.048 26.0002 132.947 25.9809 132.851 25.9429C132.756 25.905 132.67 25.8492 132.597 25.7788C132.523 25.7084 132.466 25.6248 132.426 25.5327C132.388 25.4407 132.367 25.342 132.367 25.2424V24.2092C132.367 24.0079 132.45 23.8147 132.597 23.6722C132.744 23.5298 132.944 23.4498 133.151 23.4498H133.934V19.8719C133.934 19.6724 134.015 19.4808 134.159 19.3389C134.305 19.197 134.502 19.1161 134.708 19.1143Z" fill="white"/>
<path d="M141.728 18.6086C142.207 18.6281 142.662 18.8267 142.994 19.163C143.18 19.3411 143.327 19.5537 143.426 19.7882C143.524 20.0226 143.573 20.2739 143.568 20.5269C143.571 20.7776 143.523 21.0265 143.424 21.2584C143.325 21.4902 143.18 21.7004 142.994 21.8759C142.819 22.0539 142.609 22.195 142.375 22.2904C142.141 22.3858 141.889 22.4334 141.635 22.4304C141.376 22.4338 141.119 22.3851 140.879 22.287C140.639 22.189 140.424 22.0441 140.246 21.8611C140.059 21.68 139.912 21.4643 139.815 21.2272C139.716 20.99 139.668 20.7362 139.672 20.4806C139.665 20.0191 139.84 19.5722 140.162 19.2313C140.359 19.0219 140.602 18.8573 140.873 18.7497C141.144 18.642 141.435 18.5938 141.728 18.6086ZM141.588 23.4559C142 23.4559 142.396 23.6147 142.688 23.8972C142.98 24.1795 143.143 24.5627 143.143 24.9622V33.731C143.143 34.1306 142.98 34.5137 142.688 34.796C142.396 35.0785 142 35.2373 141.588 35.2373C141.191 35.2373 140.81 35.0847 140.528 34.813C140.247 34.5413 140.09 34.1728 140.089 33.7884V24.9067C140.09 24.5221 140.247 24.1533 140.528 23.8814C140.81 23.6094 141.191 23.4565 141.588 23.4559Z" fill="white"/>
<path d="M151.634 23.1525C152.773 23.1482 153.893 23.4365 154.88 23.9878C155.863 24.5186 156.678 25.2979 157.24 26.2424C157.801 27.1799 158.095 28.2452 158.089 29.3287C158.095 30.4235 157.799 31.4999 157.234 32.4481C156.684 33.3951 155.878 34.1791 154.901 34.7157C153.91 35.2629 152.786 35.5453 151.646 35.5344C150.813 35.5463 149.986 35.3923 149.217 35.082C148.449 34.7718 147.754 34.3118 147.176 33.7307C146.568 33.133 146.092 32.4229 145.774 31.6428C145.456 30.8629 145.303 30.0288 145.327 29.1904C145.349 28.3522 145.546 27.527 145.905 26.7638C146.264 26.0008 146.777 25.3157 147.417 24.7491C148.559 23.7136 150.069 23.1421 151.634 23.1525ZM151.684 25.9356C151.241 25.9251 150.801 26.0051 150.394 26.1704C149.985 26.3357 149.617 26.5826 149.314 26.8948C148.996 27.2222 148.747 27.6075 148.583 28.0283C148.419 28.4494 148.343 28.8976 148.36 29.3472C148.36 30.3722 148.672 31.2026 149.295 31.8383C149.599 32.1498 149.967 32.3957 150.376 32.5598C150.785 32.7238 151.224 32.8022 151.667 32.79C152.112 32.8007 152.555 32.7205 152.966 32.5546C153.378 32.3888 153.747 32.1409 154.053 31.8272C154.69 31.1841 155.008 30.3574 155.008 29.3472C155.008 28.3369 154.698 27.5158 154.077 26.8837C153.769 26.5718 153.397 26.326 152.985 26.1627C152.573 25.9994 152.129 25.9219 151.684 25.9356Z" fill="white"/>
<path d="M160.995 23.4557H163.23C163.339 23.4557 163.443 23.4972 163.52 23.5714C163.596 23.6456 163.639 23.7463 163.639 23.8511V24.6642C164.201 24.1798 164.835 23.7821 165.522 23.4851C166.067 23.2671 166.651 23.1541 167.239 23.1525C167.812 23.1424 168.378 23.2458 168.906 23.4562C169.435 23.6667 169.913 23.9796 170.312 24.3759C171.019 25.0696 171.374 26.0953 171.374 27.4529V34.8452C171.374 34.95 171.331 35.0506 171.253 35.1248C171.177 35.1988 171.074 35.2406 170.965 35.2406H168.778C168.671 35.2406 168.567 35.1988 168.49 35.1248C168.414 35.0506 168.371 34.95 168.371 34.8452V30.079C168.371 28.6732 168.306 27.7393 168.18 27.2773C168.08 26.8623 167.84 26.4911 167.498 26.2221C167.153 25.9713 166.73 25.841 166.299 25.8525C165.708 25.843 165.137 26.0587 164.709 26.4531C164.236 26.9056 163.914 27.4851 163.786 28.1164C163.698 28.486 163.654 29.283 163.652 30.5078V34.8378C163.652 34.9426 163.61 35.0432 163.533 35.1174C163.457 35.1916 163.352 35.2332 163.245 35.2332H160.995C160.941 35.2334 160.888 35.2233 160.838 35.2035C160.789 35.1838 160.743 35.1547 160.705 35.118C160.667 35.0811 160.637 35.0374 160.617 34.9894C160.596 34.9413 160.586 34.8897 160.586 34.8378V23.8511C160.586 23.7463 160.63 23.6456 160.707 23.5714C160.783 23.4972 160.886 23.4557 160.995 23.4557Z" fill="white"/>
<path d="M180.789 26.0574C180.562 26.2782 180.265 26.417 179.944 26.4506C179.625 26.4844 179.304 26.4106 179.034 26.2422C178.673 25.9899 178.245 25.8454 177.801 25.8263C177.512 25.8095 177.227 25.8841 176.987 26.0389C176.907 26.09 176.841 26.1575 176.791 26.2366C176.741 26.3157 176.71 26.4044 176.7 26.4963C176.691 26.5883 176.701 26.6813 176.732 26.7686C176.765 26.856 176.815 26.9356 176.882 27.0017C177.153 27.2325 177.461 27.4195 177.793 27.5561L178.911 28.0976C180.088 28.6618 180.899 29.2359 181.341 29.8199C181.848 30.531 182.075 31.3955 181.976 32.255C181.879 33.1142 181.463 33.9106 180.808 34.4973C180.013 35.1984 178.948 35.5489 177.614 35.5489C176.478 35.5757 175.365 35.2377 174.45 34.5879C174.293 34.4743 174.163 34.33 174.068 34.1647C173.972 33.9994 173.915 33.8166 173.896 33.6281C173.878 33.4396 173.901 33.2495 173.963 33.0701C174.027 32.8907 174.127 32.7259 174.259 32.5864C174.496 32.3348 174.818 32.1727 175.168 32.1287C175.517 32.0847 175.872 32.1618 176.167 32.3462C176.273 32.4127 176.382 32.4738 176.492 32.531C176.882 32.7523 177.322 32.8792 177.774 32.9007C178.123 32.9167 178.466 32.8169 178.748 32.6179C178.857 32.5458 178.948 32.4494 179.013 32.3365C179.076 32.2238 179.112 32.0979 179.116 31.9692C179.116 31.5146 178.67 31.0705 177.78 30.6368L176.75 30.1396C174.781 29.1787 173.797 27.9768 173.797 26.5341C173.793 26.0819 173.89 25.6342 174.082 25.2219C174.275 24.8097 174.556 24.4428 174.909 24.1465C175.654 23.4848 176.601 23.1541 177.756 23.1541C178.538 23.146 179.31 23.3177 180.009 23.6548C180.208 23.7495 180.399 23.8576 180.583 23.9783C180.752 24.0907 180.895 24.2379 180.999 24.4095C181.104 24.581 181.168 24.7728 181.188 24.9712C181.208 25.1695 181.182 25.3695 181.113 25.5572C181.043 25.7449 180.933 25.9157 180.789 26.0574Z" fill="white"/>
<path d="M56.5462 42.4932H56.4727V42.5644V43.0374V43.1085H56.5462H59.7405H59.8141V43.0374V42.5644V42.4932H59.7405H58.5443V39.2167H59.7405H59.8141V39.1455V38.6742V38.603H59.7405H56.5462H56.4727V38.6742V39.1455V39.2167H56.5462H57.7424V42.4932H56.5462Z" fill="white" stroke="white"/>
<path d="M63.0067 41.307H63.944V42.3354C63.7086 42.4908 63.4275 42.5678 63.1406 42.5544H63.1392H63.1377C62.661 42.5544 62.2917 42.3873 62.0386 42.0951C61.7855 41.8012 61.6458 41.3732 61.6458 40.8423C61.6458 40.3126 61.7987 39.8919 62.0592 39.6046C62.3211 39.3182 62.6948 39.1578 63.1524 39.1578H63.1539H63.1554C63.3363 39.1519 63.5173 39.1818 63.6865 39.2456C63.8557 39.3095 64.0087 39.4059 64.1382 39.5291L64.1897 39.5775L64.2412 39.5298L64.6223 39.1768L64.6782 39.1252L64.6223 39.0738C64.228 38.7121 63.7027 38.5146 63.1597 38.5237C62.4829 38.5239 61.8959 38.742 61.4795 39.1459C61.0616 39.5502 60.8203 40.1344 60.8203 40.8551C60.8203 41.5828 61.0572 42.1673 61.4647 42.5702C61.8708 42.973 62.4417 43.1881 63.0965 43.1883C63.6688 43.2038 64.2279 43.019 64.6723 42.6677L64.6988 42.6464V42.6126V40.7756V40.7044H64.6252H63.0067H62.9332V40.7756V41.2358V41.307H63.0067Z" fill="white" stroke="white"/>
<path d="M65.7923 38.603H65.7188V38.6742V43.0374V43.1085H65.7923H66.4162H66.4897V43.0374V40.7551C66.4897 40.4755 66.4662 40.1859 66.4426 39.9018C66.4368 39.8306 66.4294 39.7596 66.425 39.6894L66.7722 40.3298V40.3311L66.7737 40.3324L68.4098 43.0731L68.4304 43.1085H68.4731H69.1896H69.2632V43.0374V38.6742V38.603H69.1896H68.5673H68.4937V38.6742V40.9381C68.4937 41.2385 68.5187 41.5563 68.5437 41.8591C68.5481 41.9132 68.5526 41.9669 68.557 42.0199L68.2112 41.3817V41.3805L68.2097 41.3792L66.5736 38.6386L66.553 38.603H66.5103H65.7923Z" fill="white" stroke="white"/>
<path d="M70.5658 42.4932H70.4922V42.5644V43.0374V43.1085H70.5658H73.76H73.8336V43.0374V42.5644V42.4932H73.76H72.5639V39.2167H73.76H73.8336V39.1455V38.6742V38.603H73.76H70.5658H70.4922V38.6742V39.1455V39.2167H70.5658H71.7619V42.4932H70.5658Z" fill="white" stroke="white"/>
<path d="M77.2366 39.2167H78.8551H78.9286V39.1455V38.6742V38.603H78.8551H74.8236H74.75V38.6742V39.1455V39.2167H74.8236H76.4406L76.4347 43.0374V43.1085H76.5083H77.163H77.2366V43.0374V39.2167Z" fill="white" stroke="white"/>
<path d="M80.0638 38.603H79.9903V38.6741L79.9844 43.0374V43.1085H80.0579H83.3037H83.3773V43.0374V42.5644V42.4932H83.3037H80.7921V41.0536H82.8358H82.9094V40.9824V40.5092V40.438H82.8358H80.7921V39.2167H83.2272H83.3008V39.1455V38.6742V38.603H83.2272H80.0638Z" fill="white" stroke="white"/>
<path d="M90.1562 42.5473V42.5513V42.5552C90.1665 42.7296 90.2445 42.8937 90.377 43.0138C90.5079 43.1339 90.6815 43.2008 90.861 43.2008C91.042 43.2008 91.2156 43.1339 91.3466 43.0138C91.4775 42.8937 91.5555 42.7296 91.5658 42.5552V42.5513V42.5473C91.5555 42.373 91.4775 42.2089 91.3466 42.0889C91.2156 41.9687 91.042 41.9019 90.861 41.9019C90.6815 41.9019 90.5079 41.9687 90.377 42.0889C90.2445 42.2089 90.1665 42.373 90.1562 42.5473Z" fill="white" stroke="white"/>
<path d="M98.6126 42.4932H98.5391V42.5644V43.0374V43.1085H98.6126H101.805H101.879V43.0374V42.5644V42.4932H101.805H100.609V39.2167H101.805H101.879V39.1455V38.6742V38.603H101.805H98.6126H98.5391V38.6742V39.1455V39.2167H98.6126H99.8088V42.4932H98.6126Z" fill="white" stroke="white"/>
<path d="M103.183 38.603H103.109V38.6742V43.0374V43.1085H103.183H103.805H103.879V43.0374V40.7551C103.879 40.4755 103.854 40.1859 103.83 39.9018C103.824 39.8306 103.819 39.7596 103.813 39.6893L104.16 40.3298V40.3311L104.161 40.3324L105.798 43.0731L105.818 43.1085H105.861H106.579H106.652V43.0374V38.6742V38.603H106.579H105.955H105.881V38.6742V40.9362C105.881 41.2277 105.906 41.5365 105.931 41.8315C105.936 41.8952 105.942 41.9582 105.946 42.0203L105.6 41.3817L105.599 41.3805V41.3792L103.963 38.6386L103.941 38.603H103.898H103.183Z" fill="white" stroke="white"/>
<path d="M107.859 38.603H107.785V38.6744L107.794 43.0375V43.1085H107.868H108.49H108.564V43.0374V40.7551C108.564 40.4755 108.538 40.1859 108.515 39.9018C108.509 39.8306 108.503 39.7596 108.497 39.6894L108.845 40.3298V40.3311L108.846 40.3324L110.482 43.0731L110.503 43.1085H110.545H111.256H111.33V43.0374V38.6742V38.603H111.256H110.631H110.557V38.6742V40.9362C110.557 41.2277 110.584 41.5365 110.607 41.8315C110.613 41.8952 110.619 41.9582 110.623 42.0203L110.276 41.3817V41.3805L110.275 41.3792L108.639 38.6386L108.618 38.603H108.575H107.859Z" fill="white" stroke="white"/>
<path d="M114.224 38.5288C113.628 38.5288 113.116 38.7438 112.754 39.1446C112.394 39.5444 112.188 40.1229 112.188 40.8416C112.188 41.5658 112.394 42.1537 112.754 42.5619C113.116 42.971 113.626 43.1934 114.224 43.1934C114.821 43.1934 115.332 42.968 115.694 42.5576C116.054 42.1483 116.26 41.5604 116.26 40.8416C116.26 40.1229 116.054 39.5444 115.692 39.1446C115.332 38.7438 114.82 38.5288 114.224 38.5288ZM114.222 39.1628C114.583 39.1628 114.883 39.3145 115.093 39.5968C115.307 39.8813 115.433 40.3026 115.433 40.8416C115.433 41.3865 115.307 41.818 115.093 42.111C114.882 42.4019 114.581 42.5595 114.222 42.5595C113.862 42.5595 113.562 42.3994 113.35 42.1068C113.137 41.8124 113.01 41.3808 113.01 40.8416C113.01 40.3026 113.137 39.8813 113.35 39.5968C113.56 39.3145 113.86 39.1628 114.222 39.1628Z" fill="white" stroke="white"/>
<path d="M116.894 38.6034H116.789L116.824 38.6989L118.459 43.0602L118.477 43.1072H118.528H119.292H119.343L119.361 43.0601L120.981 38.6968L121.016 38.6016H120.912H120.242H120.189L120.173 38.6501L119.354 41.0045V41.0044V41.0054C119.314 41.1227 119.277 41.235 119.242 41.3445C119.136 41.6666 119.039 41.9639 118.918 42.2919C118.834 42.0576 118.764 41.8426 118.69 41.6238C118.625 41.4263 118.559 41.2257 118.481 41.0044V41.0042L117.665 38.652L117.647 38.6034H117.594H116.894Z" fill="white" stroke="white"/>
<path d="M123.205 38.603H123.155L123.136 38.6489L121.424 43.0122L121.387 43.1085H121.493H122.164H122.215L122.233 43.0613L122.702 41.7854H124.447L124.902 43.0607L124.919 43.1085H124.971H125.673H125.779L125.74 43.012L124.022 38.6489L124.004 38.603H123.954H123.205ZM124.034 40.6275L124.234 41.1902H122.921L123.127 40.6274V40.6271C123.288 40.1893 123.433 39.763 123.579 39.3191C123.72 39.7697 123.875 40.196 124.034 40.6271V40.6275Z" fill="white" stroke="white"/>
<path d="M126.156 39.1455V39.2167H126.23H127.845V43.0374V43.1085H127.919H128.574H128.647V43.0374V39.2167H130.264H130.338V39.1455V38.6742V38.603H130.264H126.23H126.156V38.6742V39.1455Z" fill="white" stroke="white"/>
<path d="M131.476 38.603H131.403V38.6741L131.398 43.0374V43.1085H131.472H134.718H134.791V43.0374V42.5644V42.4932H134.718H132.205V41.0536H134.25H134.323V40.9824V40.5092V40.438H134.25H132.205V39.2167H134.64H134.713V39.1455V38.6742V38.603H134.64H131.476Z" fill="white" stroke="white"/>
<path d="M141.663 42.1643C141.593 42.2826 141.562 42.4186 141.572 42.5548C141.574 42.6415 141.593 42.727 141.63 42.8062C141.666 42.8859 141.719 42.9579 141.786 43.0173C141.852 43.0767 141.93 43.1225 142.014 43.152C142.099 43.1811 142.189 43.1936 142.277 43.1886C142.418 43.1882 142.557 43.1467 142.673 43.0698C142.791 42.9925 142.88 42.8828 142.932 42.7549C142.983 42.6271 142.995 42.4871 142.963 42.3533C142.932 42.2194 142.86 42.0979 142.755 42.0045C142.651 41.9112 142.52 41.8503 142.38 41.8298C142.24 41.8095 142.096 41.8304 141.968 41.8901C141.841 41.9498 141.734 42.0453 141.663 42.1643Z" fill="white" stroke="white"/>
<path d="M150.023 42.4932H149.949V42.5644V43.0374V43.1085H150.023H153.217H153.291V43.0374V42.5644V42.4932H153.217H152.021V39.2167H153.217H153.291V39.1455V38.6742V38.603H153.217H150.023H149.949V38.6742V39.1455V39.2167H150.023H151.219V42.4932H150.023Z" fill="white" stroke="white"/>
<path d="M154.597 38.603H154.523V38.6742V43.0374V43.1085H154.597H155.219H155.293V43.0374V40.7551C155.293 40.4735 155.269 40.1819 155.246 39.8961C155.24 39.8267 155.234 39.7575 155.228 39.6888L155.575 40.3298L155.577 40.3311V40.3324L157.213 43.0731L157.235 43.1085H157.278H157.993H158.066V43.0374V38.6742V38.603H157.993H157.371H157.297V38.6742V40.9362C157.297 41.23 157.322 41.5409 157.347 41.8379C157.351 41.8996 157.357 41.9607 157.362 42.0209L157.014 41.3817L157.013 41.3805V41.3792L155.377 38.6386L155.355 38.603H155.314H154.597Z" fill="white" stroke="white"/>
<path d="M159.101 42.4229L159.047 42.4774L159.107 42.5263C159.634 42.962 160.308 43.1972 161.001 43.1883C162.141 43.1881 162.883 42.6218 162.883 41.8733C162.883 41.53 162.749 41.2736 162.53 41.077C162.315 40.8832 162.022 40.7495 161.704 40.6423L160.989 40.3712L160.988 40.3706V40.3702C160.767 40.2959 160.548 40.2171 160.383 40.1109C160.22 40.0057 160.124 39.882 160.124 39.7185C160.124 39.5486 160.208 39.412 160.362 39.3146C160.52 39.2156 160.752 39.1577 161.039 39.1577H161.041C161.478 39.1467 161.904 39.2844 162.247 39.5471L162.302 39.5879L162.347 39.5397L162.691 39.1812L162.744 39.1262L162.684 39.0781C162.231 38.7109 161.654 38.5141 161.063 38.5238C160.564 38.5238 160.13 38.6551 159.818 38.8739C159.504 39.093 159.315 39.4021 159.315 39.7518C159.315 40.0988 159.475 40.3551 159.699 40.5446C159.921 40.732 160.205 40.8551 160.462 40.9421L161.199 41.2208L161.201 41.2212C161.21 41.2246 161.219 41.228 161.229 41.2314C161.478 41.3214 161.685 41.3963 161.832 41.5001C161.907 41.5529 161.965 41.6115 162.004 41.6808C162.043 41.75 162.065 41.8337 162.065 41.9399C162.065 42.1128 161.978 42.2631 161.807 42.3731C161.633 42.4844 161.373 42.5543 161.032 42.5543C160.501 42.5536 159.987 42.3682 159.584 42.0321L159.531 41.9878L159.484 42.0366L159.101 42.4229Z" fill="white" stroke="white"/>
<path d="M164.101 38.603H164.027V38.6742V43.0374V43.1085H164.101H164.754H164.828V43.0374V41.3789H165.644C166.217 41.3789 166.707 41.271 167.055 41.0372C167.408 40.801 167.61 40.4407 167.61 39.9568C167.61 39.4562 167.408 39.1115 167.052 38.8962C166.702 38.6845 166.212 38.603 165.644 38.603H164.101ZM166.808 39.9568C166.808 40.2484 166.708 40.4486 166.514 40.5796C166.315 40.7143 166.005 40.7837 165.566 40.7837H164.828V39.1963H165.566C166.003 39.1963 166.314 39.2497 166.515 39.3693C166.708 39.4842 166.808 39.666 166.808 39.9568Z" fill="white" stroke="white"/>
<path d="M168.722 42.4932H168.648V42.5644V43.0374V43.1085H168.722H171.916H171.99V43.0374V42.5644V42.4932H171.916H170.72V39.2167H171.916H171.99V39.1455V38.6742V38.603H171.916H168.722H168.648V38.6742V39.1455V39.2167H168.722H169.918V42.4932H168.722Z" fill="white" stroke="white"/>
<path d="M173.425 38.603H173.352V38.6742V43.0466V43.1178H173.425H174.087H174.161V43.0466V41.2698H174.957L176.162 43.0687L176.184 43.1013H176.224H176.962H177.099L177.024 42.9908L175.79 41.1787C175.999 41.1237 176.187 41.0434 176.346 40.9367C176.684 40.7088 176.887 40.3636 176.887 39.905C176.887 39.4259 176.687 39.0945 176.346 38.8869C176.01 38.6829 175.547 38.603 175.023 38.603H173.425ZM174.929 40.671H174.161V39.1963H174.929C175.322 39.1963 175.613 39.2516 175.804 39.3662C175.988 39.477 176.087 39.6474 176.087 39.905C176.087 40.1634 175.987 40.3495 175.801 40.4743C175.61 40.6021 175.319 40.671 174.929 40.671Z" fill="white" stroke="white"/>
<path d="M178.214 38.603H178.141V38.6742L178.142 43.0375V43.1085H178.216H181.461H181.535V43.0374V42.5644V42.4932H181.461H178.948V41.0536H180.994H181.067V40.9824V40.5092V40.438H180.994H178.94V39.2167H181.376H181.45V39.1455V38.6742V38.603H181.376H178.214Z" fill="white" stroke="white"/>
<path d="M69.2463 14.6142C69.2536 14.8159 69.2183 15.017 69.1418 15.2052C69.0668 15.3934 68.9535 15.565 68.8078 15.7098C68.6622 15.8546 68.4885 15.9698 68.2958 16.0482C68.1045 16.1267 67.897 16.1668 67.6896 16.1666C67.4424 16.1714 67.1982 16.1173 66.979 16.0089C66.7583 15.9006 66.5699 15.7414 66.4287 15.5456L62.4884 10.7185H60.5241V14.5994C60.5241 15.0405 60.3432 15.4636 60.021 15.7754C59.6987 16.0874 59.2617 16.2627 58.8056 16.2627C58.3495 16.2627 57.9125 16.0874 57.5903 15.7754C57.2681 15.4636 57.0871 15.0405 57.0871 14.5994V2.41707C57.0782 2.17189 57.1209 1.92756 57.2136 1.69933C57.3063 1.47095 57.4461 1.26364 57.6256 1.09022C57.8051 0.916654 58.0185 0.780965 58.2553 0.691265C58.4908 0.601565 58.7424 0.559989 58.9969 0.569102H63.1961C66.77 0.569102 69.0844 2.87539 69.0844 5.66963C69.0844 7.66553 67.9162 9.36571 65.9225 10.1937L68.8549 13.5866C69.105 13.8746 69.2448 14.238 69.2463 14.6142ZM60.5241 7.87255H63.0063C64.5174 7.87255 65.7327 7.40682 65.7327 5.67703C65.7327 3.94724 64.5174 3.41502 63.0063 3.41502H60.5241V7.87255Z" fill="white"/>
<path d="M105.516 6.01022C105.775 6.3004 105.921 6.66916 105.928 7.05245C105.928 7.85079 105.379 8.27223 104.645 8.27223C104.382 8.26981 104.121 8.21087 103.883 8.09967C103.646 7.98847 103.437 7.82786 103.271 7.6291C103.096 7.42905 102.878 7.26802 102.634 7.1571C102.388 7.04605 102.12 6.98767 101.851 6.98596C101.117 6.98596 100.659 7.34078 100.659 7.85079C100.659 8.07262 100.705 8.51613 101.667 8.77484L103.065 9.14446C104.806 9.65447 106.387 10.4972 106.387 12.5153C106.387 15.0213 104.004 16.1948 101.614 16.1948C99.5132 16.1948 98.3685 15.3318 97.7181 14.6886C97.5813 14.5555 97.0089 13.9124 97.0089 13.1585C97.0016 12.9946 97.031 12.8313 97.0928 12.6789C97.1561 12.5266 97.2502 12.3885 97.3709 12.2736C97.4915 12.1587 97.6357 12.0695 97.7946 12.0119C97.9535 11.9542 98.1227 11.9293 98.2919 11.9387C98.9555 11.9387 99.3454 12.3379 99.6426 12.6779C100.331 13.432 100.98 13.5872 101.614 13.5872C102.622 13.5872 103.058 13.1437 103.058 12.7002C103.058 12.4783 102.965 11.9905 101.888 11.68L100.698 11.3252C98.3596 10.682 97.3753 9.4624 97.3753 7.86559C97.3753 5.53709 99.575 4.42822 101.728 4.42822C103.247 4.43563 104.76 4.99006 105.516 6.01022Z" fill="white"/>
<path d="M119.331 9.84638V14.6143C119.331 15.0437 119.154 15.4555 118.841 15.7591C118.528 16.0626 118.102 16.2332 117.658 16.2332C117.215 16.2332 116.79 16.0626 116.476 15.7591C116.163 15.4555 115.987 15.0437 115.987 14.6143V9.84638C115.987 7.99827 115.046 7.20735 113.787 7.20735C111.817 7.20735 111.266 9.07012 111.221 9.49157V14.6143C111.221 15.0437 111.044 15.4555 110.731 15.7591C110.417 16.0626 109.992 16.2332 109.548 16.2332C109.105 16.2332 108.68 16.0626 108.365 15.7591C108.052 15.4555 107.875 15.0437 107.875 14.6143V1.88499C107.875 1.45557 108.052 1.0438 108.365 0.740243C108.68 0.436686 109.105 0.266113 109.548 0.266113C109.992 0.266113 110.417 0.436686 110.731 0.740243C111.044 1.0438 111.221 1.45557 111.221 1.88499V7.02254C111.312 6.20199 112.619 4.45013 115.039 4.45013C117.386 4.45739 119.331 5.98771 119.331 9.84638Z" fill="white"/>
<path d="M79.9253 4.46061H82.1662C82.275 4.46061 82.378 4.50204 82.4545 4.57579C82.531 4.64969 82.5737 4.74978 82.5737 4.85415V15.8483C82.5737 15.9526 82.531 16.0527 82.4545 16.1266C82.378 16.2004 82.275 16.2418 82.1662 16.2418H79.9253C79.8179 16.2418 79.7134 16.2004 79.6384 16.1266C79.5619 16.0527 79.5192 15.9526 79.5192 15.8483C79.5177 15.7747 79.4971 15.7026 79.4559 15.6404C79.4162 15.578 79.3574 15.528 79.2897 15.4959C79.2205 15.4637 79.1455 15.4507 79.069 15.4586C78.9939 15.4663 78.9219 15.4943 78.8615 15.5396C78.5128 15.799 78.1302 16.0151 77.7256 16.1827C77.1077 16.4306 76.4455 16.5563 75.7761 16.5523C74.2062 16.5523 72.8466 15.9622 71.699 14.7818C70.5499 13.6016 69.9775 12.1348 69.9805 10.3817C69.9805 8.56076 70.5352 7.07003 71.6475 5.90948C72.1507 5.35376 72.7731 4.91011 73.472 4.60911C74.1694 4.30797 74.9271 4.15648 75.6908 4.16488C76.397 4.16104 77.0974 4.29758 77.7462 4.56597C78.1494 4.73498 78.529 4.95225 78.8747 5.21267C78.9351 5.25638 79.0072 5.28286 79.0822 5.28927C79.1573 5.29567 79.2323 5.28172 79.3 5.24883C79.3677 5.21594 79.4236 5.16568 79.4633 5.10346C79.503 5.04124 79.5236 4.96962 79.5222 4.89672V4.86155C79.5222 4.80973 79.531 4.75804 79.5516 4.70977C79.5707 4.66151 79.6001 4.61751 79.6384 4.58035C79.6751 4.54305 79.7208 4.51329 79.7693 4.49279C79.8194 4.47228 79.8723 4.46132 79.9253 4.46061ZM76.3087 6.88707C75.8688 6.87667 75.4303 6.95769 75.0243 7.1247C74.6196 7.29172 74.2547 7.54088 73.9575 7.85541C73.3322 8.50224 73.0203 9.33076 73.0203 10.3411C73.0203 11.8454 73.7148 12.9542 75.1052 13.6676C75.139 13.6866 75.1758 13.7003 75.2155 13.7081C76.681 14.0261 77.8448 13.7452 78.7056 12.8655C79.3412 12.2211 79.6605 11.3748 79.6605 10.3263C79.6605 9.30242 79.3412 8.47263 78.7056 7.8369C78.3966 7.5248 78.0243 7.2789 77.6123 7.11531C77.1989 6.95171 76.7545 6.87383 76.3087 6.88707Z" fill="white"/>
<path d="M85.2215 4.62003H87.4594C87.5669 4.62003 87.6713 4.66175 87.7478 4.73593C87.8243 4.81011 87.867 4.91063 87.867 5.01557V5.82871C88.4276 5.34362 89.0632 4.9458 89.7503 4.64965C90.2947 4.43138 90.8788 4.31847 91.4689 4.31705C92.0397 4.30722 92.6062 4.41059 93.1344 4.62103C93.6641 4.83147 94.1423 5.14428 94.541 5.54039C95.2473 6.23279 95.6004 7.2585 95.6004 8.61739V16.0095C95.6004 16.0615 95.5901 16.1131 95.5695 16.1612C95.5489 16.2093 95.5195 16.253 95.4812 16.2898C95.443 16.3265 95.3973 16.3557 95.3473 16.3755C95.2987 16.3953 95.2458 16.4054 95.1914 16.4051H92.9961C92.9417 16.4038 92.8887 16.3924 92.8401 16.3713C92.7901 16.3501 92.746 16.3198 92.7092 16.2821C92.6724 16.2443 92.643 16.1998 92.6238 16.1511C92.6047 16.1025 92.5959 16.0506 92.5974 15.9984V11.2361C92.5974 9.83034 92.5326 8.89646 92.4061 8.43443C92.306 8.01911 92.0662 7.64763 91.7249 7.37924C91.3791 7.12837 90.9568 6.99809 90.5257 7.00962C89.9342 7.00037 89.3634 7.21593 88.9352 7.61019C88.4629 8.06282 88.1422 8.64231 88.0141 9.27348C87.9244 9.64311 87.8802 10.4402 87.8802 11.6648V15.9984C87.8802 16.1034 87.8376 16.204 87.7611 16.2781C87.6846 16.3523 87.5801 16.394 87.4727 16.394H85.2215C85.1127 16.394 85.0096 16.3523 84.9331 16.2781C84.8551 16.204 84.8125 16.1034 84.8125 15.9984V5.00817C84.8154 4.90451 84.8581 4.80584 84.9346 4.73323C85.0111 4.66076 85.1141 4.62003 85.2215 4.62003Z" fill="white"/>
</svg>
